# xmcd CD database file
#
# Track frame offsets:
#	150
#	50679
#	97043
#	187943
#	230241
#	272187
#
# Disc length: 4207 seconds
#
# Revision: 1
# Processed by: cddbd v1.5.2PL0 Copyright (c) Steve Scherf et al.
# Submitted via: CDex 1.51
#
DISCID=55106d06
DTITLE=Gomer Edwin Evans - Feng Shui
DYEAR=2011
DGENRE=New Age
TTITLE0=Im Fluss Des Qi
TTITLE1=Loslassen Und Wohlfuhlen
TTITLE2=Im Zeichen Von Wind Und Wasser
TTITLE3=Harmonie Des Lebens
TTITLE4=Orte Der Behalglichkeit
TTITLE5=Die Funf Elemente Des Feng Shui
EXTD=YEAR: 2011
EXTT0=
EXTT1=
EXTT2=
EXTT3=
EXTT4=
EXTT5=
PLAYORDER=
